#!OML:ASF F:\VICON\USERDATA\INSTALL\rory3\rory3.ASF
:FULLY-SPECIFIED
:DEGREES
27
root 0.7684016582887586 17.96076589010352 -2.3898696892413405 -3.9531202326076054 -1.5980694285363695 1.3419621888426452
lfemur -5.116648225151049 -2.5157702821504673 -26.351583245277517
ltibia 29.236111071587835
lfoot -15.651546442341623 2.461190096565532
ltoes -0.10046559378587006
rfemur -27.51751685116352 -3.0252954954253393 20.995715705986484
rtibia 80.28337934078492
rfoot -4.052846269932532 -7.512605631393822
rtoes 8.96755481130569
lowerback 11.740368122457252 0.2512522539088483 -2.2424346449510013
upperback 0.4398565271976575 0.10369061838276483 0.5989279698677153
thorax -6.06187937719648 0.1179443629683008 2.0254678076196053
lowerneck -16.012797790958054 -2.7406785994117646 -1.5821478355944456
upperneck 21.46623655613667 -3.5272348556686524 0.678494047203335
head 9.462974875618693 -1.7154977659313089 0.021078355166559426
lclavicle -7.4570241365758655e-16 -6.433699444856796e-16
lhumerus -31.104490558591703 2.381053673671736 81.13555804741013
lradius 24.833399896053628
lwrist 5.102721890197879
lhand -28.073758385777214 22.26029090957624
lfingers 7.125020000000058
lthumb -1.4568417500699813 52.226536437049134
rclavicle -7.4570241365758655e-16 -6.433699444856796e-16
rhumerus -30.64448156635619 -20.051522377069475 -79.09617958523681
rradius 27.701145472831975
rwrist 3.313928973818059
rhand -17.365572356645394 28.892774234065158
rfingers 7.125020000000058
rthumb 8.883222430931085 -6.338797015814505
28
root 0.7746839583416368 17.94331497353513 -1.0595713778663143 -3.820399670922927 -0.9591915873509911 1.7260592151969232
lfemur -2.756488139031651 -2.616807913561037 -26.974263885083932
ltibia 27.797076442415637
lfoot -17.162793465390983 2.898601527813649
ltoes 0.007716988414787629
rfemur -30.500007345299398 -2.9661649546989888 20.683808062075787
rtibia 71.68089170532356
rfoot -6.825539141166317 -8.252279191370658
rtoes 5.000520916162165
lowerback 11.608614027845405 -0.11799204153504073 -2.9760022904425494
upperback 0.4684403865084345 -0.48305225160483534 0.642631912872201
thorax -5.965649213428384 -0.1464935015633404 2.542697495920554
lowerneck -15.997309071321855 -2.7778073507605803 -1.7912293660253662
upperneck 21.090483360760448 -3.556920646887065 0.7977147626479475
head 9.335951355146346 -1.7282425947447595 0.09689368895508454
lclavicle -1.0066132555936218e-15 -8.453939283556229e-16
lhumerus -29.56736656389527 0.14790881539820067 80.95417111650521
lradius 25.650268194636332
lwrist 5.339735420362809
lhand -28.33887407543962 22.746815801933778
lfingers 7.125020000000057
lthumb -1.7128529683600364 52.71697951237094
rclavicle -1.0066132555936218e-15 -8.453939283556229e-16
rhumerus -31.855339368726163 -20.18639452037692 -78.93752174463633
rradius 27.03394900579346
rwrist 2.487156824433346
rhand -17.32338455732763 28.93851133021698
rfingers 7.125020000000057
rthumb 8.923823697005592 -6.3199699284511235
29
root 0.745882179341363 17.902849389831868 0.048915386890552526 -3.176894760432303 -0.30698827124101336 2.1372046251109524
lfemur 0.3542074573562779 -2.438530353091592 -27.282195631838178
ltibia 26.085009528361734
lfoot -18.07830444047085 3.014113744454929
ltoes 1.1607068681924728
rfemur -32.63225347170694 -1.908952083656437 20.339740831256698
rtibia 60.37782689626245
rfoot -7.981615304436094 -9.95964516523549
rtoes 1.186807123928551
lowerback 11.52952105693205 -0.4134539040953983 -3.4929292960579614
upperback 0.46307024621835907 -0.9343545444119209 0.7692263959834523
thorax -5.861120633677283 -0.3539306143307269 3.0869867305571934
lowerneck -16.045443109451103 -2.824195002638557 -1.9309189630560275
upperneck 20.746697616806898 -3.597975752158556 0.91775921147858
head 9.229744426094495 -1.7485356118343616 0.15740341672990038
lclavicle -7.604336712048398e-16 -6.547764643951837e-16
lhumerus -27.78414125604293 -1.6818070088113561 80.940333049376
lradius 27.96132964268901
lwrist 6.252291492070841
lhand -28.215897185340566 24.40960022046626
lfingers 7.125020000000057
lthumb -1.594172960155138 54.3743763421452
rclavicle -7.604336712048398e-16 -6.547764643951837e-16
rhumerus -32.589964875314394 -19.585787648599748 -78.69111513099244
rradius 27.850783328087715
rwrist 2.092039968233877
rhand -17.315632516305403 28.95277287304421
rfingers 7.125020000000057
rthumb 8.931103360340163 -5.929904712174233
30
root 0.7626478515867707 17.871411066710444 1.2388725152672944 -2.4656612048457736 0.2270863122398843 2.577404849970234
lfemur 3.8628776108345733 -2.2061890835894635 -27.728958346026815
ltibia 22.474010807339333
lfoot -18.91527828114338 2.682775896401142
ltoes 0.622185604471098
rfemur -33.65597814520461 -0.12031824870021168 19.32042667122164
rtibia 46.283980919741616
rfoot -7.3349553244635 -12.582412696277686
rtoes -1.8879177775762628
lowerback 11.25514181439765 -0.6763124215658608 -4.162718226468019
upperback 0.4383799165728918 -1.3564420366377243 0.8128262030373934
thorax -5.7092162574306755 -0.544299381476696 3.566011827017658
lowerneck -16.230547771240346 -2.8583450740625187 -1.9943059899116125
upperneck 20.36464493902653 -3.6403591081272615 0.9959568454092639
head 9.13667469455569 -1.7612987068295731 0.18933858889350336
lclavicle -8.385000499550929e-16 -7.15223411133617e-16
lhumerus -25.96326655527082 -3.455338683853179 80.73884794942033
lradius 29.631398115963385
lwrist 7.124719864220392
lhand -28.50961194085506 24.88706320493047
lfingers 7.125020000000057
lthumb -1.8778836181847143 54.84629382165073
rclavicle -8.385000499550929e-16 -7.15223411133617e-16
rhumerus -33.59118294402977 -19.554549598308014 -78.53991924616305
rradius 27.852418112002205
rwrist 1.860263194657362
rhand -17.3378447637644 28.99841915183208
rfingers 7.125020000000057
rthumb 8.909730579868578 -5.989130111092266
